# xmcd CD database file
#
# Track frame offsets:
#	150
#	22240
#	40208
#	56068
#	72230
#	91850
#	114083
#	137645
#	153310
#	177385
#	199445
#	221640
#
# Disc length: 3221 seconds
#
# Revision: 2
# Processed by: cddbd v1.5.2PL0 Copyright (c) Steve Scherf et al.
# Submitted via: CDex 1.70beta2
#
DISCID=ad0c930c
DTITLE=COCX-30244 - スーパードール★リカちゃん スーパーソングコレクション
DYEAR=1999
DGENRE=Anime
TTITLE0=Rooky/ねっ
TTITLE1=河野由佳/Romantic
TTITLE2=白木由美/Le Present
TTITLE3=河野由佳/Kira Kira～友情のテーマ～
TTITLE4=Rooky/「ねっ」 (Cutey Techno Mix)
TTITLE5=Rooky/わぁお!
TTITLE6=森の木児童合唱団/Skip Kids
TTITLE7=大木理沙/m・a・j・y・o
TTITLE8=わぁお! (Super Remix) [Rooky]
TTITLE9=わぁお! (オリジナル・カラオケ) [Rooky]
TTITLE10=ねっ (オリジナル・カラオケ) [Rooky]
TTITLE11=ねっ-Cutey Techno Mix- (オリジナル・カラオケ) [Rooky]
EXTD=YEAR: 1999
EXTT0=
EXTT1=
EXTT2=
EXTT3=
EXTT4=
EXTT5=
EXTT6=
EXTT7=
EXTT8=
EXTT9=
EXTT10=
EXTT11=
PLAYORDER=
